<svg width="360" height="560" viewBox="0 0 360 560" xmlns="http://www.w3.org/2000/svg">
  <defs>
    <!-- Deep Space Background -->
    <radialGradient id="spaceBg" cx="30%" cy="20%" r="80%">
      <stop offset="0%" stop-color="#020617"/>
      <stop offset="100%" stop-color="#000000"/>
    </radialGradient>

    <!-- GitHub Green Glow -->
    <linearGradient id="greenGlow" x1="0%" y1="0%" x2="100%" y2="0%">
      <stop offset="0%" stop-color="#16a34a"/>
      <stop offset="100%" stop-color="#22c55e"/>
    </linearGradient>
  </defs>

  <!-- Card -->
  <rect width="360" height="560" rx="24" fill="url(#spaceBg)"/>

  <!-- Starfield -->
  <circle cx="40" cy="60" r="1.3" fill="#22c55e" opacity="0.8"/>
  <circle cx="110" cy="120" r="1" fill="#22c55e" opacity="0.6"/>
  <circle cx="260" cy="90" r="1.4" fill="#22c55e" opacity="0.9"/>
  <circle cx="300" cy="160" r="1.1" fill="#22c55e" opacity="0.7"/>
  <circle cx="80" cy="220" r="1.2" fill="#22c55e" opacity="0.6"/>
  <circle cx="200" cy="260" r="1" fill="#22c55e" opacity="0.5"/>
  <circle cx="140" cy="340" r="1.3" fill="#22c55e" opacity="0.8"/>
  <circle cx="290" cy="420" r="1.1" fill="#22c55e" opacity="0.7"/>

  <!-- Title -->
  <text x="180" y="58" text-anchor="middle"
        font-size="24" fill="#22c55e" font-family="monospace">
    2024 · GSSOC #100
  </text>

  <!-- Divider -->
  <rect x="40" y="86" width="280" height="1" fill="#14532d"/>

  <!-- Contribution Summary -->
  <text x="40" y="125" font-size="14" fill="#e5e7eb" font-family="monospace">
    ★ Total Contributions : 348
  </text>
  <text x="40" y="155" font-size="14" fill="#e5e7eb" font-family="monospace">
    ⎇ Open-Source PRs     : GSSoC
  </text>

  <!-- Activity Density -->
  <text x="40" y="205" font-size="13" fill="#22c55e" font-family="monospace">
    ACTIVITY DENSITY
  </text>
  <rect x="40" y="220" width="280" height="8" rx="4" fill="#052e16"/>
  <rect x="40" y="220" width="200" height="8" rx="4" fill="url(#greenGlow)"/>

  <!-- Skills -->
  <text x="40" y="270" font-size="13" fill="#22c55e" font-family="monospace">
    SKILLS ACQUIRED
  </text>

  <text x="40" y="300" font-size="13" fill="#e5e7eb" font-family="monospace">
    Python (Data Analytics)
  </text>
  <rect x="40" y="315" width="220" height="6" rx="3" fill="#052e16"/>
  <rect x="40" y="315" width="170" height="6" rx="3" fill="#22c55e"/>

  <text x="40" y="350" font-size="13" fill="#e5e7eb" font-family="monospace">
    REST APIs (Basics)
  </text>
  <rect x="40" y="365" width="220" height="6" rx="3" fill="#052e16"/>
  <rect x="40" y="365" width="145" height="6" rx="3" fill="#16a34a"/>

  <text x="40" y="400" font-size="13" fill="#e5e7eb" font-family="monospace">
    Documentation & Reporting
  </text>
  <rect x="40" y="415" width="220" height="6" rx="3" fill="#052e16"/>
  <rect x="40" y="415" width="185" height="6" rx="3" fill="#22c55e"/>

  <!-- Footer Divider -->
  <rect x="40" y="470" width="280" height="1" fill="#14532d"/>

  <!-- Footer Motto -->
  <text x="180" y="505" text-anchor="middle"
        font-size="13" fill="#86efac" font-family="monospace">
    LEARNING · CONSISTENCY · DISCIPLINE
  </text>
</svg>
