<svg xmlns="http://www.w3.org/2000/svg" width="360" height="560" viewBox="0 0 360 560">
  <defs>
    <!-- Space Background -->
    <radialGradient id="spaceBg" cx="30%" cy="20%" r="80%">
      <stop offset="0%" stop-color="#020617"/>
      <stop offset="100%" stop-color="#000000"/>
    </radialGradient>

    <!-- GitHub Green Accent -->
    <linearGradient id="greenGlow" x1="0%" y1="0%" x2="100%" y2="0%">
      <stop offset="0%" stop-color="#16a34a"/>
      <stop offset="100%" stop-color="#22c55e"/>
    </linearGradient>
  </defs>

  <!-- Card -->
  <rect x="0" y="0" width="360" height="560" rx="24" fill="url(#spaceBg)"/>

  <!-- Starfield -->
  <circle cx="42" cy="62" r="1.2" fill="#22c55e" opacity="0.8"/>
  <circle cx="118" cy="128" r="1.0" fill="#22c55e" opacity="0.6"/>
  <circle cx="262" cy="92" r="1.3" fill="#22c55e" opacity="0.9"/>
  <circle cx="304" cy="166" r="1.1" fill="#22c55e" opacity="0.7"/>
  <circle cx="82" cy="228" r="1.1" fill="#22c55e" opacity="0.6"/>
  <circle cx="202" cy="272" r="1.0" fill="#22c55e" opacity="0.5"/>
  <circle cx="144" cy="352" r="1.3" fill="#22c55e" opacity="0.8"/>
  <circle cx="292" cy="432" r="1.1" fill="#22c55e" opacity="0.7"/>

  <!-- Title -->
  <text x="180" y="58" text-anchor="middle"
        font-family="monospace" font-size="24"
        fill="#22c55e">
    2024 · GSSOC #100
  </text>

  <!-- Divider -->
  <rect x="40" y="86" width="280" height="1" fill="#14532d"/>

  <!-- Contributions -->
  <text x="40" y="125" font-family="monospace" font-size="14" fill="#e5e7eb">
    ★ Total Contributions : 348
  </text>
  <text x="40" y="155" font-family="monospace" font-size="14" fill="#e5e7eb">
    ⎇ Open-Source PRs     : GSSoC
  </text>

  <!-- Activity Density -->
  <text x="40" y="205" font-family="monospace" font-size="13" fill="#22c55e">
    ACTIVITY DENSITY
  </text>
  <rect x="40" y="220" width="280" height="8" rx="4" fill="#052e16"/>
  <rect x="40" y="220" width="200" height="8" rx="4" fill="url(#greenGlow)"/>

  <!-- Skills -->
  <text x="40" y="270" font-family="monospace" font-size="13" fill="#22c55e">
    SKILLS ACQUIRED
  </text>

  <text x="40" y="300" font-family="monospace" font-size="13" fill="#e5e7eb">
    Python (Data Analytics)
  </text>
  <rect x="40" y="315" width="220" height="6" rx="3" fill="#052e16"/>
  <rect x="40" y="315" width="170" height="6" rx="3" fill="#22c55e"/>

  <text x="40" y="350" font-family="monospace" font-size="13" fill="#e5e7eb">
    REST APIs (Basics)
  </text>
  <rect x="40" y="365" width="220" height="6" rx="3" fill="#052e16"/>
  <rect x="40" y="365" width="145" height="6" rx="3" fill="#16a34a"/>

  <text x="40" y="400" font-family="monospace" font-size="13" fill="#e5e7eb">
    Documentation & Reporting
  </text>
  <rect x="40" y="415" width="220" height="6" rx="3" fill="#052e16"/>
  <rect x="40" y="415" width="185" height="6" rx="3" fill="#22c55e"/>

  <!-- Footer -->
  <rect x="40" y="470" width="280" height="1" fill="#14532d"/>

  <text x="180" y="505" text-anchor="middle"
        font-family="monospace" font-size="13"
        fill="#86efac">
    LEARNING · CONSISTENCY · DISCIPLINE
  </text>
</svg>
