<svg xmlns="http://www.w3.org/2000/svg" width="360" height="560" viewBox="0 0 360 560">

  <!-- Background -->
  <rect x="0" y="0" width="360" height="560" rx="24" fill="#020617"/>

  <!-- Stars -->
  <circle cx="40" cy="60" r="1.2" fill="#22c55e"/>
  <circle cx="120" cy="110" r="1.0" fill="#22c55e"/>
  <circle cx="260" cy="90" r="1.3" fill="#22c55e"/>
  <circle cx="300" cy="160" r="1.1" fill="#22c55e"/>
  <circle cx="90" cy="240" r="1.1" fill="#22c55e"/>
  <circle cx="210" cy="290" r="1.0" fill="#22c55e"/>
  <circle cx="150" cy="360" r="1.2" fill="#22c55e"/>
  <circle cx="290" cy="440" r="1.1" fill="#22c55e"/>

  <!-- Title -->
  <text x="180" y="56" text-anchor="middle"
        font-family="monospace" font-size="24"
        fill="#22c55e">
    2024 · GSSOC #100
  </text>

  <!-- Divider -->
  <rect x="40" y="80" width="280" height="1" fill="#14532d"/>

  <!-- Stats -->
  <text x="40" y="120" font-family="monospace" font-size="14" fill="#e5e7eb">
    ★ Total Contributions : 348
  </text>

  <text x="40" y="150" font-family="monospace" font-size="14" fill="#e5e7eb">
    ⎇ Open-Source PRs     : GSSoC
  </text>

  <!-- Activity Density -->
  <text x="40" y="200" font-family="monospace" font-size="13" fill="#22c55e">
    ACTIVITY DENSITY
  </text>

  <rect x="40" y="215" width="280" height="8" rx="4" fill="#052e16"/>
  <rect x="40" y="215" width="200" height="8" rx="4" fill="#22c55e"/>

  <!-- Skills -->
  <text x="40" y="265" font-family="monospace" font-size="13" fill="#22c55e">
    SKILLS ACQUIRED
  </text>

  <text x="40" y="295" font-family="monospace" font-size="13" fill="#e5e7eb">
    Python (Data Analytics)
  </text>
  <rect x="40" y="308" width="220" height="6" rx="3" fill="#052e16"/>
  <rect x="40" y="308" width="170" height="6" rx="3" fill="#22c55e"/>

  <text x="40" y="345" font-family="monospace" font-size="13" fill="#e5e7eb">
    REST APIs (Basics)
  </text>
  <rect x="40" y="358" width="220" height="6" rx="3" fill="#052e16"/>
  <rect x="40" y="358" width="145" height="6" rx="3" fill="#16a34a"/>

  <text x="40" y="395" font-family="monospace" font-size="13" fill="#e5e7eb">
    Documentation & Reporting
  </text>
  <rect x="40" y="408" width="220" height="6" rx="3" fill="#052e16"/>
  <rect x="40" y="408" width="185" height="6" rx="3" fill="#22c55e"/>

  <!-- Footer Divider -->
  <rect x="40" y="460" width="280" height="1" fill="#14532d"/>

  <!-- Footer Text -->
  <text x="180" y="495" text-anchor="middle"
        font-family="monospace" font-size="13"
        fill="#86efac">
    LEARNING · CONSISTENCY · DISCIPLINE
  </text>

</svg>
