<svg xmlns="http://www.w3.org/2000/svg" width="360" height="560" viewBox="0 0 360 560">

  <!-- Background -->
  <rect x="0" y="0" width="360" height="560" rx="24" fill="#020617"/>

  <!-- Stars -->
  <circle cx="50" cy="70" r="1.2" fill="#a78bfa"/>
  <circle cx="130" cy="120" r="1.0" fill="#a78bfa"/>
  <circle cx="260" cy="100" r="1.3" fill="#67e8f9"/>
  <circle cx="300" cy="170" r="1.1" fill="#67e8f9"/>
  <circle cx="90" cy="240" r="1.1" fill="#a78bfa"/>
  <circle cx="210" cy="290" r="1.0" fill="#67e8f9"/>
  <circle cx="150" cy="360" r="1.2" fill="#a78bfa"/>
  <circle cx="290" cy="440" r="1.1" fill="#67e8f9"/>

  <!-- Title -->
  <text x="180" y="56" text-anchor="middle"
        font-family="monospace" font-size="24"
        fill="#a78bfa">
    2025 · ACCELERATION
  </text>

  <!-- Divider -->
  <rect x="40" y="80" width="280" height="1" fill="#312e81"/>

  <!-- Stats -->
  <text x="40" y="120" font-family="monospace" font-size="14" fill="#e5e7eb">
    ⚡ Commits (2025) : 163
  </text>

  <text x="40" y="150" font-family="monospace" font-size="14" fill="#e5e7eb">
    ⎇ Total PRs      : 78
  </text>

  <text x="40" y="180" font-family="monospace" font-size="14" fill="#e5e7eb">
    ○ Issues         : 96
  </text>

  <text x="40" y="210" font-family="monospace" font-size="14" fill="#e5e7eb">
    ⬢ Contributed To : 12 Repos
  </text>

  <!-- Activity Density -->
  <text x="40" y="260" font-family="monospace" font-size="13" fill="#a78bfa">
    ACTIVITY DENSITY
  </text>

  <rect x="40" y="275" width="280" height="8" rx="4" fill="#1e1b4b"/>
  <rect x="40" y="275" width="215" height="8" rx="4" fill="#67e8f9"/>

  <!-- Skills Focus -->
  <text x="40" y="325" font-family="monospace" font-size="13" fill="#a78bfa">
    SKILL FOCUS
  </text>

  <text x="40" y="355" font-family="monospace" font-size="13" fill="#e5e7eb">
    Salesforce · Apex · LWC · Flows
  </text>
  <rect x="40" y="368" width="220" height="6" rx="3" fill="#1e1b4b"/>
  <rect x="40" y="368" width="185" height="6" rx="3" fill="#a78bfa"/>

  <text x="40" y="405" font-family="monospace" font-size="13" fill="#e5e7eb">
    Automation &amp; APIs
  </text>
  <rect x="40" y="418" width="220" height="6" rx="3" fill="#1e1b4b"/>
  <rect x="40" y="418" width="170" height="6" rx="3" fill="#67e8f9"/>

  <!-- Footer Divider -->
  <rect x="40" y="470" width="280" height="1" fill="#312e81"/>

  <!-- Footer -->
  <text x="180" y="505" text-anchor="middle"
        font-family="monospace" font-size="13"
        fill="#c4b5fd">
    SPEED · SCALE · IMPACT
  </text>

</svg>
