<svg xmlns="http://www.w3.org/2000/svg" width="360" height="560" viewBox="0 0 360 560">

  <!-- Background -->
  <rect x="0" y="0" width="360" height="560" rx="24" fill="#020617"/>

  <!-- Nebula Stars -->
  <circle cx="60" cy="80" r="1.2" fill="#f472b6"/>
  <circle cx="140" cy="120" r="1.0" fill="#f472b6"/>
  <circle cx="260" cy="110" r="1.3" fill="#fbbf24"/>
  <circle cx="300" cy="170" r="1.1" fill="#fbbf24"/>
  <circle cx="90" cy="250" r="1.1" fill="#f472b6"/>
  <circle cx="210" cy="300" r="1.0" fill="#fbbf24"/>
  <circle cx="150" cy="370" r="1.2" fill="#f472b6"/>
  <circle cx="290" cy="450" r="1.1" fill="#fbbf24"/>

  <!-- Title -->
  <text x="180" y="56" text-anchor="middle"
        font-family="monospace" font-size="24"
        fill="#f472b6">
    2026 · EXPANSION
  </text>

  <!-- Divider -->
  <rect x="40" y="80" width="280" height="1" fill="#7c2d12"/>

  <!-- Vision Summary -->
  <text x="40" y="120" font-family="monospace" font-size="14" fill="#e5e7eb">
    ◎ Focus Year : Real-World Systems
  </text>

  <text x="40" y="150" font-family="monospace" font-size="14" fill="#e5e7eb">
    ▶ Stage     : Implementation &amp; Scale
  </text>

  <!-- Expansion Meter -->
  <text x="40" y="200" font-family="monospace" font-size="13" fill="#f472b6">
    EXPANSION TRAJECTORY
  </text>

  <rect x="40" y="215" width="280" height="8" rx="4" fill="#1f2933"/>
  <rect x="40" y="215" width="235" height="8" rx="4" fill="#fbbf24"/>

  <!-- Planned Initiatives -->
  <text x="40" y="265" font-family="monospace" font-size="13" fill="#f472b6">
    PLANNED INITIATIVES
  </text>

  <text x="40" y="295" font-family="monospace" font-size="13" fill="#e5e7eb">
    Campuz Navigation (Real-World Deployment)
  </text>
  <rect x="40" y="308" width="220" height="6" rx="3" fill="#1f2933"/>
  <rect x="40" y="308" width="180" height="6" rx="3" fill="#f472b6"/>

  <text x="40" y="345" font-family="monospace" font-size="13" fill="#e5e7eb">
    Java-Based System Projects
  </text>
  <rect x="40" y="358" width="220" height="6" rx="3" fill="#1f2933"/>
  <rect x="40" y="358" width="165" height="6" rx="3" fill="#fbbf24"/>

  <text x="40" y="395" font-family="monospace" font-size="13" fill="#e5e7eb">
    Salesforce End-to-End Platform Build
  </text>
  <rect x="40" y="408" width="220" height="6" rx="3" fill="#1f2933"/>
  <rect x="40" y="408" width="190" height="6" rx="3" fill="#f472b6"/>

  <!-- Footer Divider -->
  <rect x="40" y="470" width="280" height="1" fill="#7c2d12"/>

  <!-- Footer -->
  <text x="180" y="505" text-anchor="middle"
        font-family="monospace" font-size="13"
        fill="#fde68a">
    VISION · EXECUTION · REAL-WORLD IMPACT
  </text>

</svg>
